<svg xmlns="http://www.w3.org/2000/svg" width="1200" height="675" viewBox="0 0 1200 675">
<style>
.bg { fill: #f4f7f9; }
.panel { fill: #fff; stroke: #dbe4ea; stroke-width: 1; }
.title { font: 700 52px Arial, sans-serif; fill: #102a43; }
.copy { font: 400 23px Arial, sans-serif; fill: #425466; }
.metric { font: 700 52px Arial, sans-serif; fill: #172033; }
.note { font: 400 18px Arial, sans-serif; fill: #425466; }
.city { font: 700 20px Arial, sans-serif; fill: #172033; }
</style>
<rect class="bg" width="1200" height="675"/>
<rect class="panel" x="44" y="38" width="1112" height="598" rx="10"/>
<text x="80" y="112" class="title">Heat Stress Reinsurance Workbench</text>
<text x="80" y="154" class="copy">A current heat event turned into a reinsurance trigger and basis-risk view.</text>
<rect class="panel" x="80" y="195" width="245" height="98" rx="8"/>
<text x="102" y="232" class="note">Highest region</text>
<text x="102" y="275" class="metric">Vienna</text>
<rect class="panel" x="350" y="195" width="245" height="98" rx="8"/>
<text x="372" y="232" class="note">Risk score</text>
<text x="372" y="275" class="metric">66.8</text>
<rect class="panel" x="620" y="195" width="245" height="98" rx="8"/>
<text x="642" y="232" class="note">Analysis date</text>
<text x="642" y="275" class="metric">2026-06-29</text>
<text x="80" y="354" class="copy">Current underwriting queue</text>
<text x="84" y="320" class="city">Vienna</text><rect x="255" y="302" width="307" height="18" rx="5" fill="#0f766e"/><text x="577" y="320" class="note">66.8</text><text x="84" y="363" class="city">Rome</text><rect x="255" y="345" width="289" height="18" rx="5" fill="#0f766e"/><text x="559" y="363" class="note">63.0</text><text x="84" y="406" class="city">Warsaw</text><rect x="255" y="388" width="287" height="18" rx="5" fill="#0f766e"/><text x="557" y="406" class="note">62.5</text><text x="84" y="449" class="city">Milan</text><rect x="255" y="431" width="268" height="18" rx="5" fill="#0f766e"/><text x="538" y="449" class="note">58.3</text><text x="84" y="492" class="city">Marseille</text><rect x="255" y="474" width="206" height="18" rx="5" fill="#0f766e"/><text x="476" y="492" class="note">44.8</text>
</svg>