<svg xmlns="http://www.w3.org/2000/svg" width="1200" height="675" viewBox="0 0 1200 675">
<style>
.bg { fill: #f3f6f8; }
.panel { fill: #fff; stroke: #d8e1e8; stroke-width: 1; }
.title { font: 700 50px Arial, sans-serif; fill: #102a43; }
.copy { font: 400 22px Arial, sans-serif; fill: #425466; }
.metric { font: 700 48px Arial, sans-serif; fill: #172033; }
.note { font: 400 18px Arial, sans-serif; fill: #425466; }
.city { font: 700 20px Arial, sans-serif; fill: #172033; }
</style>
<rect class="bg" width="1200" height="675"/>
<rect class="panel" x="44" y="38" width="1112" height="598" rx="8"/>
<text x="80" y="112" class="title">Live Heat Stress Risk Monitor</text>
<text x="80" y="154" class="copy">A browser-ready heat stress, trigger and basis-risk workbench.</text>
<rect class="panel" x="80" y="195" width="245" height="98" rx="7"/>
<text x="102" y="232" class="note">Highest region</text>
<text x="102" y="275" class="metric">Rome</text>
<rect class="panel" x="350" y="195" width="245" height="98" rx="7"/>
<text x="372" y="232" class="note">Risk score</text>
<text x="372" y="275" class="metric">63.2</text>
<rect class="panel" x="620" y="195" width="245" height="98" rx="7"/>
<text x="642" y="232" class="note">Fallback data date</text>
<text x="642" y="275" class="metric">2026-06-30</text>
<text x="80" y="364" class="copy">Current watchlist ranking</text>
<text x="84" y="330" class="city">Rome</text><rect x="255" y="312" width="297" height="18" rx="4" fill="#0f766e"/><text x="567" y="330" class="note">63.2</text><text x="84" y="373" class="city">Vienna</text><rect x="255" y="355" width="248" height="18" rx="4" fill="#0f766e"/><text x="518" y="373" class="note">52.8</text><text x="84" y="416" class="city">Marseille</text><rect x="255" y="398" width="209" height="18" rx="4" fill="#0f766e"/><text x="479" y="416" class="note">44.6</text><text x="84" y="459" class="city">Barcelona</text><rect x="255" y="441" width="199" height="18" rx="4" fill="#0f766e"/><text x="469" y="459" class="note">42.4</text><text x="84" y="502" class="city">Milan</text><rect x="255" y="484" width="195" height="18" rx="4" fill="#0f766e"/><text x="465" y="502" class="note">41.6</text>
</svg>