<svg xmlns="http://www.w3.org/2000/svg" width="1200" height="675" viewBox="0 0 1200 675">
<style>
.bg { fill: #f7fafc; }
.card { fill: #ffffff; stroke: #dbe4ea; stroke-width: 1; }
.title { font: 700 42px Arial, sans-serif; fill: #102a43; }
.subtitle { font: 400 22px Arial, sans-serif; fill: #425466; }
.metric { font: 700 44px Arial, sans-serif; fill: #172033; }
.small { font: 400 18px Arial, sans-serif; fill: #425466; }
.label { font: 700 20px Arial, sans-serif; fill: #172033; }
</style>
<rect class="bg" width="1200" height="675"/>
<rect class="card" x="44" y="42" width="1112" height="590" rx="10"/>
<text x="70" y="105" class="title">Heat Stress Reinsurance Workbench</text>
<text x="70" y="145" class="subtitle">Live heat signal, trigger response and forward stress test for Europe.</text>
<rect class="card" x="70" y="185" width="245" height="110" rx="8"/>
<text x="92" y="226" class="small">Highest region</text>
<text x="92" y="274" class="metric">Vienna</text>
<rect class="card" x="340" y="185" width="245" height="110" rx="8"/>
<text x="362" y="226" class="small">Active triggers</text>
<text x="362" y="274" class="metric">5</text>
<rect class="card" x="610" y="185" width="245" height="110" rx="8"/>
<text x="632" y="226" class="small">Scenario payout</text>
<text x="632" y="274" class="metric">CHF 31.2m</text>
<rect class="card" x="880" y="185" width="245" height="110" rx="8"/>
<text x="902" y="226" class="small">Analysis date</text>
<text x="902" y="274" class="metric">2026-06-29</text>
<text x="70" y="350" class="subtitle">Current portfolio queue</text>
<text x="70" y="270" class="label">Vienna</text><rect x="230" y="252" width="300" height="18" rx="5" fill="#0f766e"/><text x="545" y="270" class="small">66.8</text><text x="70" y="312" class="label">Rome</text><rect x="230" y="294" width="283" height="18" rx="5" fill="#0f766e"/><text x="528" y="312" class="small">63.0</text><text x="70" y="354" class="label">Warsaw</text><rect x="230" y="336" width="281" height="18" rx="5" fill="#0f766e"/><text x="526" y="354" class="small">62.5</text><text x="70" y="396" class="label">Milan</text><rect x="230" y="378" width="262" height="18" rx="5" fill="#0f766e"/><text x="507" y="396" class="small">58.3</text><text x="70" y="438" class="label">Marseille</text><rect x="230" y="420" width="201" height="18" rx="5" fill="#0f766e"/><text x="446" y="438" class="small">44.8</text>
</svg>